<?xml version="1.0" ?>
<!-- Uploaded to: SVG Repo, www.svgrepo.com, Generator: SVG Repo Mixer Tools -->
<svg width="800px" height="800px" viewBox="0 -24.21 512 512" xmlns="http://www.w3.org/2000/svg">
<defs>
</defs>
<g data-name="Layer 2" id="Layer_2">
<g data-name="E441, Archive, cabinet, drawer" id="E441_Archive_cabinet_drawer">
<path class="cls-1" d="M371.47,272.85,351.39,313H160.61l-20.08-40.17H40.12A30.13,30.13,0,0,0,10,303V423.47a30.13,30.13,0,0,0,30.12,30.12H471.88A30.13,30.13,0,0,0,502,423.47V303a30.13,30.13,0,0,0-30.12-30.13Z"/>
<rect class="cls-1" height="40.16" rx="20.08" width="251.02" x="130.49" y="363.22"/>
<path class="cls-1" d="M381.51,31.87h45.4a30.13,30.13,0,0,1,29.58,24.44L502,292.93"/>
<path class="cls-1" d="M10,292.93,55.5,56.31a30.12,30.12,0,0,1,25-24.08l50-.1"/>
<path class="cls-1" d="M70.24,272.85v-42a30.12,30.12,0,0,1,30.13-30.12H411.63a30.12,30.12,0,0,1,30.13,30.12v42"/>
<path class="cls-1" d="M90.33,200.78V167.31a30.12,30.12,0,0,1,30.12-30.13h271.1a30.12,30.12,0,0,1,30.12,30.13v33.47"/>
<path class="cls-1" d="M110.41,137.18V103.71a30.12,30.12,0,0,1,30.12-30.12H371.47a30.12,30.12,0,0,1,30.12,30.12v33.47"/>
<path class="cls-1" d="M130.49,73.59V40.12A30.13,30.13,0,0,1,160.61,10H351.39a30.13,30.13,0,0,1,30.12,30.12V73.59"/>
</g>
</g>
</svg>
