<svg width="800px" height="800px" version="1.1" viewBox="0 0 60 60" xmlns="http://www.w3.org/2000/svg">
 <path d="m5.832 0c-1.561 0-2.832 1.271-2.832 2.832v24.093h6.4211v-17.632c0-1.1898.96878-2.1586 2.1586-2.1586h36.841c1.1898 0 2.1584.96884 2.1584 2.1586v17.632h6.4213v-24.093c0-1.561-1.271-2.832-2.832-2.832h-48.336zm-2.832 33.075v24.093c0 1.561 1.271 2.832 2.832 2.832h48.336c1.561 0 2.832-1.271 2.832-2.832v-24.093h-6.4211v17.632c0 1.1898-.96878 2.1586-2.1586 2.1586h-36.841c-1.1898 0-2.1584-.96884-2.1584-2.1586v-17.632zm15.314-19.646h.000292c.80777.000134 1.4606.65317 1.4606 1.4609v2.1839c0 1.2125.98608 2.1986 2.1986 2.1986h16.054c1.2125 0 2.1984-.98608 2.1984-2.1986v-2.1839c0-.80788.65326-1.4609 1.461-1.4609.80773 0 1.4606.65309 1.4606 1.4609v2.1839c0 2.8236-2.2962 5.1199-5.1199 5.1199h-16.054c-2.8236 0-5.1198-2.2962-5.1198-5.1199v-2.1839c0-.8078.65262-1.4608 1.4603-1.4609zm0 24.376c-.80766.00016-1.4603.65296-1.4603 1.4606v2.1839c0 2.8237 2.2962 5.1199 5.1198 5.1199h16.054c2.8237 0 5.1199-2.2962 5.1199-5.1199v-2.1839c0-.8078-.65287-1.4606-1.4606-1.4606-.80778 0-1.461.65287-1.461 1.4606v2.1839c0 1.2125-.98594 2.1984-2.1984 2.1984h-16.054c-1.2125 0-2.1986-.98594-2.1986-2.1984v-2.1839c0-.8077-.65285-1.4604-1.4606-1.4606h-.000292z" style="stroke:none"/>
</svg>
