<svg width="800px" height="800px" version="1.1" viewBox="0 0 24 24" xmlns="http://www.w3.org/2000/svg">
 <path d="m12 2.6367c-3.2092 0-5.6016 2.9554-5.6016 6.3203v.44016c-1.3995.02782-2.5178 1.1635-2.5178 2.5699v6.8259c0 1.424 1.1464 2.5704 2.5704 2.5704h11.098c1.424 0 2.5703-1.1464 2.5703-2.5704v-6.8259c0-1.4065-1.1184-2.5422-2.5181-2.5699v-.44016c0-3.3649-2.3924-6.3203-5.6016-6.3203zm.000176 1.4181c2.3181 0 4.1843 2.1861 4.1843 4.9016v.44016h-8.3686v-.44016c0-2.7155 1.8662-4.9016 4.1843-4.9016zm0 8.0498a1.4765 1.4765 0 011.4766 1.4766 1.4765 1.4765 0 01-.4435 1.0549l.86379 3.8398h-3.7937l.86379-3.8398a1.4765 1.4765 0 01-.4435-1.0549 1.4765 1.4765 0 011.4766-1.4766z"/>
</svg>
