<?xml version="1.0" encoding="UTF-8" standalone="no"?>
<!-- Uploaded to: SVG Repo, www.svgrepo.com, Generator: SVG Repo Mixer Tools -->

<svg
   width="800px"
   height="800px"
   viewBox="0 0 24 24"
   version="1.1"
   id="svg6"
   sodipodi:docname="lock.svg"
   inkscape:version="1.2.2 (b0a8486541, 2022-12-01)"
   xmlns:inkscape="http://www.inkscape.org/namespaces/inkscape"
   xmlns:sodipodi="http://sodipodi.sourceforge.net/DTD/sodipodi-0.dtd"
   xmlns="http://www.w3.org/2000/svg"
   xmlns:svg="http://www.w3.org/2000/svg">
  <defs
     id="defs10" />
  <sodipodi:namedview
     id="namedview8"
     pagecolor="#ffffff"
     bordercolor="#999999"
     borderopacity="1"
     inkscape:showpageshadow="0"
     inkscape:pageopacity="0"
     inkscape:pagecheckerboard="0"
     inkscape:deskcolor="#d1d1d1"
     showgrid="false"
     inkscape:zoom="0.031367188"
     inkscape:cx="-350.68493"
     inkscape:cy="-3554.67"
     inkscape:window-width="1920"
     inkscape:window-height="1049"
     inkscape:window-x="0"
     inkscape:window-y="31"
     inkscape:window-maximized="1"
     inkscape:current-layer="svg6" />
  <path
     opacity="0.5"
     d="m 3.8805091,16.029888 c 0,-2.8284 0,-4.2426 0.7134435,-5.123926 0.7134434,-0.881326 1.8617099,-0.885553 4.1582511,-0.894007 l 6.4955923,-0.02391 c 2.296517,-0.00845 3.444776,-0.01268 4.158235,0.863393 0.71346,0.876074 0.71346,2.290274 0.71346,5.118674 0,2.8284 0,4.2426 -0.71346,5.123926 -0.713459,0.881327 -1.861718,0.885553 -4.158235,0.894007 l -6.4955923,0.02391 C 6.4556625,22.020409 5.307396,22.024636 4.5939526,21.148562 3.8805091,20.272488 3.8805091,18.858288 3.8805091,16.029888 Z"
     fill="#1c274c"
     id="path2"
     style="stroke-width:0.901082" />
  <path
     d="m 7.7536413,8.4341927 c 0,-2.2867491 1.9011636,-4.1405326 4.2463587,-4.1405326 2.345203,0 4.246359,1.8537835 4.246359,4.1405326 v 1.5801853 c 0.45893,0.0042 0.860191,0.01451 1.213245,0.04022 V 8.4341927 c 0,-2.9401094 -2.444366,-5.323542 -5.459604,-5.323542 -3.0152544,0 -5.459604,2.3834326 -5.459604,5.323542 V 10.0546 c 0.3530625,-0.02571 0.7543474,-0.03604 1.2132453,-0.04022 z"
     fill="#1c274c"
     id="path4"
     style="stroke-width:0.798688" />
</svg>
