<svg enable-background="new 0 0 512 512" version="1.1" viewBox="0 0 512 512" xmlns="http://www.w3.org/2000/svg">
 <path d="m303.12-.0019531-188.45.0019531c-25.672 0-47.111 23.299-47.111 51.199v409.6c0 27.9 20.519 51.199 47.111 51.199h282.67c25.672 0 47.111-23.299 47.111-51.199v-307.2zm-14.908 34c40.747 44.292 81.493 88.585 122.24 132.88-.007 96.744.002 193.49.0254 290.23.28242 4.7702-.36505 9.7665-2.8867 13.912-2.0774 3.4377-5.4505 6.4754-9.584 6.916-55.042.0174-110.08.042-165.13.041-38.18.0178-76.361-.0219-114.54.0332-3.1839.13453-6.6555.11704-9.3848-1.7676-4.4822-3.0328-6.9152-8.4219-7.3066-13.711-.0321-41.882-.0388-83.764-.0508-125.65-.0315-94.07.009-188.14-.0566-282.21-.29371-4.9835.49804-10.232 3.3594-14.43 2.2144-3.421 5.9321-6.2506 10.15-6.2422zm-33.549 147.91c55.066 0 100.08 44.942 100.08 100.09 0 22.724-7.6441 43.584-20.486 60.256-1.8346 2.3817-3.7768 4.6768-5.8164 6.8809-18.33 19.807-44.649 32.168-73.781 32.168-32.647 0-62.019-15.982-80.203-40.725v-.002c-4.4176-6.0112-8.1744-12.539-11.158-19.48h34.115c12.306 18.148 33.335 29.754 57.246 29.754 11.313 0 22.005-2.7045 31.459-7.5039 1.8908-.95997 3.7327-2.0042 5.5195-3.127 3.5742-2.2457 6.9301-4.8082 10.029-7.6465 1.7373-1.591 3.3942-3.2673 4.9629-5.0254 10.98-12.305 17.66-28.534 17.66-46.328 0-2.2671-.10886-4.5093-.32031-6.7207-3.3772-35.319-33.101-62.91-69.311-62.91-26.793 0-50.004 15.188-61.609 37.697l31.934 31.934h-79.834v-79.756l26.094 26.092c9.1544-14.532 21.944-26.425 37.205-34.424 3.4234-1.7943 6.9698-3.393 10.629-4.7812 10.977-4.1647 22.957-6.4375 35.582-6.4375z" style="stroke-width:4"/>
 <path d="m254.66 181.9c-12.625 0-24.605 2.2728-35.582 6.4375-3.6591 1.3882-7.2055 2.9869-10.629 4.7812-15.261 7.9986-28.051 19.892-37.205 34.424l-26.094-26.092v79.756h79.834l-31.934-31.934c11.605-22.509 34.816-37.697 61.609-37.697 36.209 0 65.933 27.591 69.311 62.91.21145 2.2114.32031 4.4536.32031 6.7207 0 17.794-6.6806 34.023-17.66 46.328-1.5687 1.7581-3.2256 3.4344-4.9629 5.0254-3.0992 2.8382-6.4551 5.4008-10.029 7.6465-1.7869 1.1227-3.6287 2.167-5.5195 3.127-9.4537 4.7994-20.146 7.5039-31.459 7.5039-23.911 0-44.94-11.606-57.246-29.754h-34.115c2.9838 6.9419 6.7406 13.469 11.158 19.48v.002c18.184 24.743 47.556 40.725 80.203 40.725 29.132 0 55.452-12.361 73.781-32.168 2.0396-2.2041 3.9818-4.4991 5.8164-6.8809 12.842-16.672 20.486-37.532 20.486-60.256 0-55.144-45.018-100.09-100.08-100.09z" style="stroke-width:4"/>
</svg>
