<?xml version="1.0" encoding="utf-8"?>
<!-- Uploaded to: SVG Repo, www.svgrepo.com, Generator: SVG Repo Mixer Tools -->
<svg width="800px" height="800px" viewBox="0 0 32 32" version="1.1" xmlns="http://www.w3.org/2000/svg">
<title>spell-check</title>
<path d="M14.275 15.8h0.575c0 0 0.001 0 0.001 0 0.441 0 0.799-0.358 0.799-0.799 0-0.124-0.028-0.241-0.078-0.346l0.002 0.005-6.108-13c-0.131-0.274-0.405-0.46-0.723-0.46-0 0-0 0-0 0h-0.632c-0 0-0 0-0 0-0.318 0-0.593 0.186-0.721 0.455l-0.002 0.005-6.11 13c-0.048 0.1-0.076 0.217-0.076 0.341 0 0.441 0.358 0.799 0.799 0.799 0 0 0.001 0 0.001 0h0.576c0.318-0 0.593-0.186 0.723-0.455l0.002-0.005 1.325-2.827h7.584l1.343 2.83c0.132 0.272 0.405 0.457 0.723 0.457h0zM5.62 10.375l2.804-5.94 2.79 5.94zM17.537 15.8h6.369c0.070 0.004 0.151 0.006 0.233 0.006 1.187 0 2.269-0.451 3.084-1.19l-0.004 0.003c0.765-0.72 1.241-1.74 1.241-2.87 0-0.026-0-0.051-0.001-0.077l0 0.004c0-0.013 0-0.028 0-0.044 0-0.97-0.339-1.861-0.905-2.561l0.006 0.008c-0.263-0.328-0.568-0.608-0.911-0.836l-0.015-0.009c0.184-0.18 0.35-0.376 0.495-0.588l0.009-0.013c0.455-0.655 0.727-1.468 0.727-2.343 0-0.014-0-0.028-0-0.042l0 0.002c0-0.014 0-0.032 0-0.049 0-1.119-0.477-2.127-1.24-2.831l-0.003-0.002c-0.813-0.729-1.892-1.174-3.075-1.174-0.083 0-0.165 0.002-0.247 0.006l0.011-0h-5.775c-0.442 0-0.8 0.358-0.8 0.8v13c0 0.442 0.358 0.8 0.8 0.8h0zM25.164 6.746c-0.29 0.357-0.729 0.584-1.221 0.584-0.020 0-0.040-0-0.060-0.001l0.003 0h-5.012v-3.99h4.418c0.059-0.005 0.128-0.008 0.197-0.008 0.619 0 1.186 0.219 1.629 0.584l-0.004-0.003c0.363 0.322 0.59 0.79 0.59 1.31 0 0.016-0 0.032-0.001 0.049l0-0.002c0 0.011 0 0.023 0 0.035 0 0.553-0.205 1.059-0.544 1.445l0.002-0.003zM25.674 10.108c0.386 0.39 0.625 0.926 0.625 1.519 0 0.011-0 0.021-0 0.032l0-0.002c0 0.015 0.001 0.033 0.001 0.051 0 0.539-0.229 1.024-0.595 1.363l-0.001 0.001c-0.431 0.371-0.995 0.597-1.613 0.597-0.072 0-0.142-0.003-0.213-0.009l0.009 0.001h-5.012v-4.195h5.031c0.050-0.004 0.109-0.006 0.168-0.006 0.622 0 1.186 0.247 1.6 0.648l-0.001-0.001zM30.75 16.078c-0.221-0.204-0.518-0.328-0.844-0.328-0.365 0-0.693 0.156-0.921 0.406l-0.001 0.001-10.981 12.002-3.030-3.008c-0.226-0.224-0.537-0.363-0.881-0.363-0.69 0-1.25 0.56-1.25 1.25 0 0.347 0.141 0.66 0.369 0.887l3.954 3.926 0.022 0.015 0.015 0.021c0.074 0.061 0.159 0.114 0.25 0.156l0.007 0.003c0.037 0.026 0.079 0.053 0.123 0.077l0.007 0.003c0.135 0.056 0.292 0.089 0.457 0.089 0.175 0 0.341-0.037 0.491-0.103l-0.008 0.003c0.051-0.030 0.095-0.060 0.136-0.091l-0.003 0.002c0.103-0.051 0.192-0.111 0.271-0.181l-0.001 0.001 0.015-0.023 0.020-0.014 11.859-12.963c0.204-0.221 0.328-0.518 0.328-0.844 0-0.365-0.156-0.693-0.406-0.921l-0.001-0.001z"></path>
</svg>
