<svg width="800px" height="800px" version="1.1" viewBox="0 0 32 32" xmlns="http://www.w3.org/2000/svg">
 <title>spell-check</title>
 <path d="m7.9107 2.757-7.2514 17.404h2.9005l1.7984-4.3509h8.0201l1.7839 4.3509h2.9005l-7.2514-17.404h-2.9006zm9.2511.58742v10.726h4.5905c1.4272 0 2.4904-.25373 3.1897-.76141.69925-.50767 1.0489-1.2789 1.0489-2.3134 0-.6753-.16284-1.2451-.48852-1.7097-.32568-.46457-.78542-.78313-1.3793-.95555.46457-.17721.81894-.44781 1.0632-.8118.24426-.36878.36641-.81413.36641-1.3362 0-.9914-.33527-1.7122-1.0058-2.1624-.66572-.4502-1.7434-.67539-3.2329-.67539h-4.1523zm2.7659 1.8823h1.5301c.43583 0 .76638.098245.99148.29461.2251.19157.33766.47169.33766.84047 0 .37357-.11256.65616-.33766.84773-.2251.19157-.55566.28734-.99148.28734h-1.5301v-2.2702zm-10.726 1.2721h.36258l2.6976 6.4102h-5.6997l2.6395-6.4102zm10.726 2.8802h1.6235c.56036 0 .9794.11735 1.2572.35203.27778.22989.41672.57715.41672 1.0417 0 .47415-.14126.8286-.42383 1.0633-.27778.23468-.69451.35203-1.2501.35203h-1.6235v-2.8091zm7.153 3.6481-11.2 11.2-3.5357-3.5357-2.9649 2.9649 6.2836 6.2837 14.165-14.165-2.7479-2.748z"/>
</svg>
