<svg width="800px" height="800px" version="1.1" viewBox="0 0 512 512" xmlns="http://www.w3.org/2000/svg">
 <path d="m87.879 64.796v41.912h44.882c-43.004 35.572-70.47 89.311-70.47 149.29 0 96.14 70.565 176.25 162.58 191.2v-42.578c-69.055-14.29-120.66-75.22-120.66-148.63 0-57.571 31.743-107.47 78.75-133.21v78.994h41.912v-94.411-.665-41.912h-41.912-95.075zm199.26 0v42.578c69.055 14.29 120.66 75.22 120.66 148.63 0 57.571-31.743 107.47-78.75 133.21v-79.659h-41.912v95.076 41.912.665c1.285-.20888 2.566-.43084 3.8425-.665h38.07 95.075v-41.912h-44.082c42.544-35.575 69.67-89.019 69.67-148.63 0-96.14-70.565-176.25-162.58-191.2z"/>
</svg>
